<svg xmlns="http://www.w3.org/2000/svg" width="1100" height="430" viewBox="0 0 1100 430">
<rect width="100%" height="100%" fill="white"/>
<g font-family="sans-serif" font-size="12" fill="black">
<text x="20" y="22">2025-06-09|44220 | AMBIGUOUS_INSUFFICIENT</text>
<text x="20" y="42">Future anatomy only; no trades. Predicate: NONE</text>
<text x="20" y="60">Gate: ROWS_LT20; observed=3; regular missing=113</text>
<path d="M 72 367.00 H 1052" stroke="#dddddd"/>
<text x="5" y="371.00">-0.15%</text>
<path d="M 72 310.00 H 1052" stroke="#dddddd"/>
<text x="5" y="314.00">0.27%</text>
<path d="M 72 253.00 H 1052" stroke="#dddddd"/>
<text x="5" y="257.00">0.70%</text>
<path d="M 72 196.00 H 1052" stroke="#dddddd"/>
<text x="5" y="200.00">1.12%</text>
<path d="M 72 139.00 H 1052" stroke="#dddddd"/>
<text x="5" y="143.00">1.54%</text>
<path d="M 72 82.00 H 1052" stroke="#dddddd"/>
<text x="5" y="86.00">1.97%</text>
<path d="M 72 346.79 H 1052" stroke="black" stroke-dasharray="5 4"/>
<path d="M 823.33 146.68 V 146.68" stroke="#aaaaaa"/>
<path d="M 994.83 124.45 V 124.45" stroke="#aaaaaa"/>
<path d="M 1052.00 102.21 V 102.21" stroke="#aaaaaa"/>
<polyline points="823.33,146.68" fill="none" stroke="black" stroke-width="1.3"/>
<polyline points="994.83,124.45" fill="none" stroke="black" stroke-width="1.3"/>
<polyline points="1052.00,102.21" fill="none" stroke="black" stroke-width="1.3"/>
<path d="M 823.33 82 V 367" stroke="black" stroke-dasharray="2 5"/>
<text x="825.33" y="360">Low</text>
<path d="M 1052.00 82 V 367" stroke="black" stroke-dasharray="2 5"/>
<text x="1054.00" y="360">High</text>
<text x="56.00" y="387">13:30</text>
<text x="301.00" y="387">14:00</text>
<text x="546.00" y="387">14:30</text>
<text x="791.00" y="387">15:00</text>
<text x="1036.00" y="387">15:30</text>
<text x="20" y="411">15:02 FIRST_PLUS1_HIGH</text>
</g></svg>
