<svg xmlns="http://www.w3.org/2000/svg" width="1100" height="430" viewBox="0 0 1100 430">
<rect width="100%" height="100%" fill="white"/>
<g font-family="sans-serif" font-size="12" fill="black">
<text x="20" y="22">2025-07-18|43890 | DIRECT_CONTINUATION</text>
<text x="20" y="42">Future anatomy only; no trades. Predicate: DIRECT_CONTINUATION</text>
<text x="20" y="60">Gate: NONE; observed=21; regular missing=245</text>
<rect x="339.27" y="82" width="178.18" height="285" fill="#eeeeee"/>
<text x="342.27" y="98">Lunch</text>
<path d="M 72 367.00 H 1052" stroke="#dddddd"/>
<text x="5" y="371.00">-0.52%</text>
<path d="M 72 310.00 H 1052" stroke="#dddddd"/>
<text x="5" y="314.00">0.04%</text>
<path d="M 72 253.00 H 1052" stroke="#dddddd"/>
<text x="5" y="257.00">0.59%</text>
<path d="M 72 196.00 H 1052" stroke="#dddddd"/>
<text x="5" y="200.00">1.15%</text>
<path d="M 72 139.00 H 1052" stroke="#dddddd"/>
<text x="5" y="143.00">1.71%</text>
<path d="M 72 82.00 H 1052" stroke="#dddddd"/>
<text x="5" y="86.00">2.26%</text>
<path d="M 72 313.84 H 1052" stroke="black" stroke-dasharray="5 4"/>
<path d="M 74.97 146.33 V 146.33" stroke="#aaaaaa"/>
<path d="M 172.97 179.83 V 101.66" stroke="#aaaaaa"/>
<path d="M 229.39 179.83 V 179.83" stroke="#aaaaaa"/>
<path d="M 273.94 235.67 V 235.67" stroke="#aaaaaa"/>
<path d="M 291.76 313.84 V 235.67" stroke="#aaaaaa"/>
<path d="M 294.73 235.67 V 235.67" stroke="#aaaaaa"/>
<path d="M 297.70 235.67 V 235.67" stroke="#aaaaaa"/>
<path d="M 517.45 291.51 V 291.51" stroke="#aaaaaa"/>
<path d="M 556.06 291.51 V 291.51" stroke="#aaaaaa"/>
<path d="M 559.03 347.34 V 291.51" stroke="#aaaaaa"/>
<path d="M 562.00 347.34 V 291.51" stroke="#aaaaaa"/>
<path d="M 570.91 291.51 V 291.51" stroke="#aaaaaa"/>
<path d="M 698.61 291.51 V 291.51" stroke="#aaaaaa"/>
<path d="M 710.48 269.17 V 269.17" stroke="#aaaaaa"/>
<path d="M 713.45 269.17 V 269.17" stroke="#aaaaaa"/>
<path d="M 716.42 235.67 V 235.67" stroke="#aaaaaa"/>
<path d="M 864.91 179.83 V 179.83" stroke="#aaaaaa"/>
<path d="M 867.88 269.17 V 269.17" stroke="#aaaaaa"/>
<path d="M 942.12 291.51 V 291.51" stroke="#aaaaaa"/>
<path d="M 998.55 246.84 V 246.84" stroke="#aaaaaa"/>
<path d="M 1052.00 313.84 V 313.84" stroke="#aaaaaa"/>
<polyline points="74.97,146.33" fill="none" stroke="black" stroke-width="1.3"/>
<polyline points="172.97,179.83" fill="none" stroke="black" stroke-width="1.3"/>
<polyline points="229.39,179.83" fill="none" stroke="black" stroke-width="1.3"/>
<polyline points="273.94,235.67" fill="none" stroke="black" stroke-width="1.3"/>
<polyline points="291.76,313.84 294.73,235.67 297.70,235.67" fill="none" stroke="black" stroke-width="1.3"/>
<polyline points="517.45,291.51" fill="none" stroke="black" stroke-width="1.3"/>
<polyline points="556.06,291.51 559.03,347.34 562.00,291.51" fill="none" stroke="black" stroke-width="1.3"/>
<polyline points="570.91,291.51" fill="none" stroke="black" stroke-width="1.3"/>
<polyline points="698.61,291.51" fill="none" stroke="black" stroke-width="1.3"/>
<polyline points="710.48,269.17 713.45,269.17 716.42,235.67" fill="none" stroke="black" stroke-width="1.3"/>
<polyline points="864.91,179.83 867.88,269.17" fill="none" stroke="black" stroke-width="1.3"/>
<polyline points="942.12,291.51" fill="none" stroke="black" stroke-width="1.3"/>
<polyline points="998.55,246.84" fill="none" stroke="black" stroke-width="1.3"/>
<polyline points="1052.00,313.84" fill="none" stroke="black" stroke-width="1.3"/>
<path d="M 559.03 82 V 367" stroke="black" stroke-dasharray="2 5"/>
<text x="561.03" y="360">Low</text>
<path d="M 172.97 82 V 367" stroke="black" stroke-dasharray="2 5"/>
<text x="174.97" y="360">High</text>
<text x="56.00" y="387">10:00</text>
<text x="145.09" y="387">10:30</text>
<text x="234.18" y="387">11:00</text>
<text x="323.27" y="387">11:30</text>
<text x="412.36" y="387">12:00</text>
<text x="501.45" y="387">12:30</text>
<text x="590.55" y="387">13:00</text>
<text x="679.64" y="387">13:30</text>
<text x="768.73" y="387">14:00</text>
<text x="857.82" y="387">14:30</text>
<text x="946.91" y="387">15:00</text>
<text x="1036.00" y="387">15:30</text>
<text x="20" y="411">10:01 FIRST_PLUS1_HIGH</text>
</g></svg>
