<svg xmlns="http://www.w3.org/2000/svg" width="1100" height="430" viewBox="0 0 1100 430">
<rect width="100%" height="100%" fill="white"/>
<g font-family="sans-serif" font-size="12" fill="black">
<text x="20" y="22">2025-06-24|93270 | AMBIGUOUS_INSUFFICIENT</text>
<text x="20" y="42">Future anatomy only; no trades. Predicate: DIRECT_CONTINUATION|PULLBACK_RECOVERY</text>
<text x="20" y="60">Gate: NONE; observed=79; regular missing=127</text>
<rect x="180.89" y="82" width="217.78" height="285" fill="#eeeeee"/>
<text x="183.89" y="98">Lunch</text>
<path d="M 72 367.00 H 1052" stroke="#dddddd"/>
<text x="5" y="371.00">-1.46%</text>
<path d="M 72 310.00 H 1052" stroke="#dddddd"/>
<text x="5" y="314.00">0.92%</text>
<path d="M 72 253.00 H 1052" stroke="#dddddd"/>
<text x="5" y="257.00">3.29%</text>
<path d="M 72 196.00 H 1052" stroke="#dddddd"/>
<text x="5" y="200.00">5.66%</text>
<path d="M 72 139.00 H 1052" stroke="#dddddd"/>
<text x="5" y="143.00">8.03%</text>
<path d="M 72 82.00 H 1052" stroke="#dddddd"/>
<text x="5" y="86.00">10.40%</text>
<path d="M 72 331.99 H 1052" stroke="black" stroke-dasharray="5 4"/>
<path d="M 72.00 316.63 V 301.28" stroke="#aaaaaa"/>
<path d="M 82.89 293.60 V 293.60" stroke="#aaaaaa"/>
<path d="M 104.67 347.34 V 293.60" stroke="#aaaaaa"/>
<path d="M 108.30 331.99 V 331.99" stroke="#aaaaaa"/>
<path d="M 115.56 331.99 V 331.99" stroke="#aaaaaa"/>
<path d="M 119.19 324.31 V 308.96" stroke="#aaaaaa"/>
<path d="M 140.96 293.60 V 285.92" stroke="#aaaaaa"/>
<path d="M 144.59 293.60 V 293.60" stroke="#aaaaaa"/>
<path d="M 155.48 278.24 V 278.24" stroke="#aaaaaa"/>
<path d="M 159.11 293.60 V 285.92" stroke="#aaaaaa"/>
<path d="M 170.00 293.60 V 285.92" stroke="#aaaaaa"/>
<path d="M 173.63 301.28 V 285.92" stroke="#aaaaaa"/>
<path d="M 177.26 285.92 V 285.92" stroke="#aaaaaa"/>
<path d="M 398.67 324.31 V 293.60" stroke="#aaaaaa"/>
<path d="M 402.30 324.31 V 324.31" stroke="#aaaaaa"/>
<path d="M 409.56 331.99 V 324.31" stroke="#aaaaaa"/>
<path d="M 413.19 331.99 V 331.99" stroke="#aaaaaa"/>
<path d="M 424.07 331.99 V 331.99" stroke="#aaaaaa"/>
<path d="M 431.33 331.99 V 331.99" stroke="#aaaaaa"/>
<path d="M 434.96 324.31 V 301.28" stroke="#aaaaaa"/>
<path d="M 442.22 301.28 V 301.28" stroke="#aaaaaa"/>
<path d="M 467.63 308.96 V 301.28" stroke="#aaaaaa"/>
<path d="M 471.26 316.63 V 301.28" stroke="#aaaaaa"/>
<path d="M 500.30 316.63 V 316.63" stroke="#aaaaaa"/>
<path d="M 514.81 316.63 V 316.63" stroke="#aaaaaa"/>
<path d="M 562.00 301.28 V 301.28" stroke="#aaaaaa"/>
<path d="M 565.63 293.60 V 270.57" stroke="#aaaaaa"/>
<path d="M 576.52 285.92 V 285.92" stroke="#aaaaaa"/>
<path d="M 580.15 278.24 V 270.57" stroke="#aaaaaa"/>
<path d="M 583.78 270.57 V 270.57" stroke="#aaaaaa"/>
<path d="M 591.04 270.57 V 232.18" stroke="#aaaaaa"/>
<path d="M 609.19 239.86 V 239.86" stroke="#aaaaaa"/>
<path d="M 623.70 247.53 V 247.53" stroke="#aaaaaa"/>
<path d="M 627.33 247.53 V 247.53" stroke="#aaaaaa"/>
<path d="M 638.22 262.89 V 262.89" stroke="#aaaaaa"/>
<path d="M 645.48 262.89 V 262.89" stroke="#aaaaaa"/>
<path d="M 652.74 278.24 V 270.57" stroke="#aaaaaa"/>
<path d="M 656.37 262.89 V 255.21" stroke="#aaaaaa"/>
<path d="M 670.89 247.53 V 239.86" stroke="#aaaaaa"/>
<path d="M 678.15 232.18 V 224.50" stroke="#aaaaaa"/>
<path d="M 685.41 216.82 V 209.14" stroke="#aaaaaa"/>
<path d="M 692.67 201.47 V 201.47" stroke="#aaaaaa"/>
<path d="M 714.44 201.47 V 201.47" stroke="#aaaaaa"/>
<path d="M 718.07 201.47 V 201.47" stroke="#aaaaaa"/>
<path d="M 732.59 193.79 V 193.79" stroke="#aaaaaa"/>
<path d="M 739.85 186.11 V 186.11" stroke="#aaaaaa"/>
<path d="M 743.48 186.11 V 186.11" stroke="#aaaaaa"/>
<path d="M 747.11 178.43 V 170.76" stroke="#aaaaaa"/>
<path d="M 750.74 170.76 V 155.40" stroke="#aaaaaa"/>
<path d="M 765.26 140.04 V 140.04" stroke="#aaaaaa"/>
<path d="M 768.89 140.04 V 140.04" stroke="#aaaaaa"/>
<path d="M 787.04 132.37 V 124.69" stroke="#aaaaaa"/>
<path d="M 790.67 140.04 V 140.04" stroke="#aaaaaa"/>
<path d="M 801.56 140.04 V 124.69" stroke="#aaaaaa"/>
<path d="M 808.81 124.69 V 124.69" stroke="#aaaaaa"/>
<path d="M 823.33 147.72 V 147.72" stroke="#aaaaaa"/>
<path d="M 841.48 155.40 V 155.40" stroke="#aaaaaa"/>
<path d="M 845.11 155.40 V 155.40" stroke="#aaaaaa"/>
<path d="M 852.37 163.08 V 163.08" stroke="#aaaaaa"/>
<path d="M 888.67 147.72 V 147.72" stroke="#aaaaaa"/>
<path d="M 895.93 155.40 V 147.72" stroke="#aaaaaa"/>
<path d="M 914.07 140.04 V 140.04" stroke="#aaaaaa"/>
<path d="M 917.70 140.04 V 140.04" stroke="#aaaaaa"/>
<path d="M 921.33 147.72 V 147.72" stroke="#aaaaaa"/>
<path d="M 939.48 155.40 V 147.72" stroke="#aaaaaa"/>
<path d="M 943.11 140.04 V 140.04" stroke="#aaaaaa"/>
<path d="M 946.74 147.72 V 147.72" stroke="#aaaaaa"/>
<path d="M 964.89 147.72 V 147.72" stroke="#aaaaaa"/>
<path d="M 979.41 147.72 V 117.01" stroke="#aaaaaa"/>
<path d="M 983.04 117.01 V 117.01" stroke="#aaaaaa"/>
<path d="M 990.30 117.01 V 117.01" stroke="#aaaaaa"/>
<path d="M 997.56 109.33 V 109.33" stroke="#aaaaaa"/>
<path d="M 1001.19 124.69 V 117.01" stroke="#aaaaaa"/>
<path d="M 1008.44 124.69 V 101.66" stroke="#aaaaaa"/>
<path d="M 1015.70 117.01 V 101.66" stroke="#aaaaaa"/>
<path d="M 1019.33 155.40 V 124.69" stroke="#aaaaaa"/>
<path d="M 1026.59 124.69 V 117.01" stroke="#aaaaaa"/>
<path d="M 1030.22 109.33 V 109.33" stroke="#aaaaaa"/>
<path d="M 1052.00 109.33 V 109.33" stroke="#aaaaaa"/>
<polyline points="72.00,301.28" fill="none" stroke="black" stroke-width="1.3"/>
<polyline points="82.89,293.60" fill="none" stroke="black" stroke-width="1.3"/>
<polyline points="104.67,347.34 108.30,331.99" fill="none" stroke="black" stroke-width="1.3"/>
<polyline points="115.56,331.99 119.19,308.96" fill="none" stroke="black" stroke-width="1.3"/>
<polyline points="140.96,285.92 144.59,293.60" fill="none" stroke="black" stroke-width="1.3"/>
<polyline points="155.48,278.24 159.11,293.60" fill="none" stroke="black" stroke-width="1.3"/>
<polyline points="170.00,293.60 173.63,301.28 177.26,285.92" fill="none" stroke="black" stroke-width="1.3"/>
<polyline points="398.67,324.31 402.30,324.31" fill="none" stroke="black" stroke-width="1.3"/>
<polyline points="409.56,331.99 413.19,331.99" fill="none" stroke="black" stroke-width="1.3"/>
<polyline points="424.07,331.99" fill="none" stroke="black" stroke-width="1.3"/>
<polyline points="431.33,331.99 434.96,301.28" fill="none" stroke="black" stroke-width="1.3"/>
<polyline points="442.22,301.28" fill="none" stroke="black" stroke-width="1.3"/>
<polyline points="467.63,301.28 471.26,316.63" fill="none" stroke="black" stroke-width="1.3"/>
<polyline points="500.30,316.63" fill="none" stroke="black" stroke-width="1.3"/>
<polyline points="514.81,316.63" fill="none" stroke="black" stroke-width="1.3"/>
<polyline points="562.00,301.28 565.63,278.24" fill="none" stroke="black" stroke-width="1.3"/>
<polyline points="576.52,285.92 580.15,270.57 583.78,270.57" fill="none" stroke="black" stroke-width="1.3"/>
<polyline points="591.04,232.18" fill="none" stroke="black" stroke-width="1.3"/>
<polyline points="609.19,239.86" fill="none" stroke="black" stroke-width="1.3"/>
<polyline points="623.70,247.53 627.33,247.53" fill="none" stroke="black" stroke-width="1.3"/>
<polyline points="638.22,262.89" fill="none" stroke="black" stroke-width="1.3"/>
<polyline points="645.48,262.89" fill="none" stroke="black" stroke-width="1.3"/>
<polyline points="652.74,278.24 656.37,255.21" fill="none" stroke="black" stroke-width="1.3"/>
<polyline points="670.89,239.86" fill="none" stroke="black" stroke-width="1.3"/>
<polyline points="678.15,232.18" fill="none" stroke="black" stroke-width="1.3"/>
<polyline points="685.41,209.14" fill="none" stroke="black" stroke-width="1.3"/>
<polyline points="692.67,201.47" fill="none" stroke="black" stroke-width="1.3"/>
<polyline points="714.44,201.47 718.07,201.47" fill="none" stroke="black" stroke-width="1.3"/>
<polyline points="732.59,193.79" fill="none" stroke="black" stroke-width="1.3"/>
<polyline points="739.85,186.11 743.48,186.11 747.11,170.76 750.74,155.40" fill="none" stroke="black" stroke-width="1.3"/>
<polyline points="765.26,140.04 768.89,140.04" fill="none" stroke="black" stroke-width="1.3"/>
<polyline points="787.04,124.69 790.67,140.04" fill="none" stroke="black" stroke-width="1.3"/>
<polyline points="801.56,124.69" fill="none" stroke="black" stroke-width="1.3"/>
<polyline points="808.81,124.69" fill="none" stroke="black" stroke-width="1.3"/>
<polyline points="823.33,147.72" fill="none" stroke="black" stroke-width="1.3"/>
<polyline points="841.48,155.40 845.11,155.40" fill="none" stroke="black" stroke-width="1.3"/>
<polyline points="852.37,163.08" fill="none" stroke="black" stroke-width="1.3"/>
<polyline points="888.67,147.72" fill="none" stroke="black" stroke-width="1.3"/>
<polyline points="895.93,147.72" fill="none" stroke="black" stroke-width="1.3"/>
<polyline points="914.07,140.04 917.70,140.04 921.33,147.72" fill="none" stroke="black" stroke-width="1.3"/>
<polyline points="939.48,147.72 943.11,140.04 946.74,147.72" fill="none" stroke="black" stroke-width="1.3"/>
<polyline points="964.89,147.72" fill="none" stroke="black" stroke-width="1.3"/>
<polyline points="979.41,117.01 983.04,117.01" fill="none" stroke="black" stroke-width="1.3"/>
<polyline points="990.30,117.01" fill="none" stroke="black" stroke-width="1.3"/>
<polyline points="997.56,109.33 1001.19,117.01" fill="none" stroke="black" stroke-width="1.3"/>
<polyline points="1008.44,109.33" fill="none" stroke="black" stroke-width="1.3"/>
<polyline points="1015.70,109.33 1019.33,155.40" fill="none" stroke="black" stroke-width="1.3"/>
<polyline points="1026.59,117.01 1030.22,109.33" fill="none" stroke="black" stroke-width="1.3"/>
<polyline points="1052.00,109.33" fill="none" stroke="black" stroke-width="1.3"/>
<path d="M 104.67 82 V 367" stroke="black" stroke-dasharray="2 5"/>
<text x="106.67" y="360">Low</text>
<path d="M 1008.44 82 V 367" stroke="black" stroke-dasharray="2 5"/>
<text x="1010.44" y="360">High</text>
<text x="56.00" y="387">11:00</text>
<text x="164.89" y="387">11:30</text>
<text x="273.78" y="387">12:00</text>
<text x="382.67" y="387">12:30</text>
<text x="491.56" y="387">13:00</text>
<text x="600.44" y="387">13:30</text>
<text x="709.33" y="387">14:00</text>
<text x="818.22" y="387">14:30</text>
<text x="927.11" y="387">15:00</text>
<text x="1036.00" y="387">15:30</text>
<text x="20" y="411">11:00 FIRST_PLUS1_HIGH; 11:09 FIRST_MINUS0_5_LOW; 11:09 RECOVERY_FULL_LOW; 11:09 RECOVERY_PAIR_LOW; 11:19 RECOVERY_FULL_HIGH; 11:19 RECOVERY_PAIR_HIGH</text>
</g></svg>
