<svg xmlns="http://www.w3.org/2000/svg" width="1100" height="430" viewBox="0 0 1100 430">
<rect width="100%" height="100%" fill="white"/>
<g font-family="sans-serif" font-size="12" fill="black">
<text x="20" y="22">2025-07-04|39090 | AMBIGUOUS_INSUFFICIENT</text>
<text x="20" y="42">Future anatomy only; no trades. Predicate: PULLBACK_RECOVERY|MULTI_SWING_CHOP</text>
<text x="20" y="60">Gate: NONE; observed=78; regular missing=129</text>
<rect x="180.89" y="82" width="217.78" height="285" fill="#eeeeee"/>
<text x="183.89" y="98">Lunch</text>
<path d="M 72 367.00 H 1052" stroke="#dddddd"/>
<text x="5" y="371.00">-10.28%</text>
<path d="M 72 310.00 H 1052" stroke="#dddddd"/>
<text x="5" y="314.00">-7.12%</text>
<path d="M 72 253.00 H 1052" stroke="#dddddd"/>
<text x="5" y="257.00">-3.95%</text>
<path d="M 72 196.00 H 1052" stroke="#dddddd"/>
<text x="5" y="200.00">-0.78%</text>
<path d="M 72 139.00 H 1052" stroke="#dddddd"/>
<text x="5" y="143.00">2.38%</text>
<path d="M 72 82.00 H 1052" stroke="#dddddd"/>
<text x="5" y="86.00">5.55%</text>
<path d="M 72 181.88 H 1052" stroke="black" stroke-dasharray="5 4"/>
<path d="M 72.00 176.87 V 176.87" stroke="#aaaaaa"/>
<path d="M 75.63 216.98 V 176.87" stroke="#aaaaaa"/>
<path d="M 79.26 191.91 V 191.91" stroke="#aaaaaa"/>
<path d="M 90.15 181.88 V 156.81" stroke="#aaaaaa"/>
<path d="M 93.78 176.87 V 176.87" stroke="#aaaaaa"/>
<path d="M 97.41 181.88 V 181.88" stroke="#aaaaaa"/>
<path d="M 104.67 186.89 V 176.87" stroke="#aaaaaa"/>
<path d="M 119.19 176.87 V 176.87" stroke="#aaaaaa"/>
<path d="M 137.33 176.87 V 176.87" stroke="#aaaaaa"/>
<path d="M 148.22 176.87 V 176.87" stroke="#aaaaaa"/>
<path d="M 173.63 176.87 V 176.87" stroke="#aaaaaa"/>
<path d="M 180.89 191.91 V 191.91" stroke="#aaaaaa"/>
<path d="M 398.67 186.89 V 171.85" stroke="#aaaaaa"/>
<path d="M 405.93 186.89 V 156.81" stroke="#aaaaaa"/>
<path d="M 409.56 156.81 V 136.75" stroke="#aaaaaa"/>
<path d="M 471.26 121.71 V 121.71" stroke="#aaaaaa"/>
<path d="M 511.19 121.71 V 121.71" stroke="#aaaaaa"/>
<path d="M 518.44 106.67 V 101.66" stroke="#aaaaaa"/>
<path d="M 562.00 126.73 V 116.70" stroke="#aaaaaa"/>
<path d="M 565.63 136.75 V 136.75" stroke="#aaaaaa"/>
<path d="M 583.78 126.73 V 126.73" stroke="#aaaaaa"/>
<path d="M 605.56 126.73 V 101.66" stroke="#aaaaaa"/>
<path d="M 609.19 136.75 V 126.73" stroke="#aaaaaa"/>
<path d="M 612.81 171.85 V 151.80" stroke="#aaaaaa"/>
<path d="M 616.44 186.89 V 171.85" stroke="#aaaaaa"/>
<path d="M 620.07 191.91 V 186.89" stroke="#aaaaaa"/>
<path d="M 623.70 206.95 V 151.80" stroke="#aaaaaa"/>
<path d="M 627.33 272.13 V 206.95" stroke="#aaaaaa"/>
<path d="M 630.96 277.15 V 242.05" stroke="#aaaaaa"/>
<path d="M 634.59 327.29 V 252.08" stroke="#aaaaaa"/>
<path d="M 638.22 322.27 V 287.18" stroke="#aaaaaa"/>
<path d="M 641.85 292.19 V 272.13" stroke="#aaaaaa"/>
<path d="M 645.48 277.15 V 277.15" stroke="#aaaaaa"/>
<path d="M 652.74 277.15 V 272.13" stroke="#aaaaaa"/>
<path d="M 656.37 277.15 V 267.12" stroke="#aaaaaa"/>
<path d="M 670.89 287.18 V 287.18" stroke="#aaaaaa"/>
<path d="M 678.15 277.15 V 277.15" stroke="#aaaaaa"/>
<path d="M 681.78 282.16 V 282.16" stroke="#aaaaaa"/>
<path d="M 689.04 287.18 V 287.18" stroke="#aaaaaa"/>
<path d="M 703.56 287.18 V 287.18" stroke="#aaaaaa"/>
<path d="M 707.19 282.16 V 277.15" stroke="#aaaaaa"/>
<path d="M 710.81 292.19 V 292.19" stroke="#aaaaaa"/>
<path d="M 736.22 277.15 V 272.13" stroke="#aaaaaa"/>
<path d="M 747.11 277.15 V 277.15" stroke="#aaaaaa"/>
<path d="M 754.37 347.34 V 277.15" stroke="#aaaaaa"/>
<path d="M 758.00 342.33 V 317.26" stroke="#aaaaaa"/>
<path d="M 761.63 327.29 V 297.20" stroke="#aaaaaa"/>
<path d="M 765.26 302.22 V 287.18" stroke="#aaaaaa"/>
<path d="M 768.89 292.19 V 277.15" stroke="#aaaaaa"/>
<path d="M 779.78 287.18 V 277.15" stroke="#aaaaaa"/>
<path d="M 790.67 297.20 V 297.20" stroke="#aaaaaa"/>
<path d="M 794.30 297.20 V 287.18" stroke="#aaaaaa"/>
<path d="M 797.93 287.18 V 282.16" stroke="#aaaaaa"/>
<path d="M 816.07 282.16 V 282.16" stroke="#aaaaaa"/>
<path d="M 819.70 272.13 V 262.11" stroke="#aaaaaa"/>
<path d="M 826.96 282.16 V 282.16" stroke="#aaaaaa"/>
<path d="M 830.59 257.09 V 257.09" stroke="#aaaaaa"/>
<path d="M 834.22 277.15 V 277.15" stroke="#aaaaaa"/>
<path d="M 845.11 287.18 V 277.15" stroke="#aaaaaa"/>
<path d="M 852.37 287.18 V 277.15" stroke="#aaaaaa"/>
<path d="M 859.63 287.18 V 287.18" stroke="#aaaaaa"/>
<path d="M 881.41 287.18 V 287.18" stroke="#aaaaaa"/>
<path d="M 888.67 282.16 V 277.15" stroke="#aaaaaa"/>
<path d="M 906.81 277.15 V 277.15" stroke="#aaaaaa"/>
<path d="M 924.96 287.18 V 287.18" stroke="#aaaaaa"/>
<path d="M 950.37 307.23 V 282.16" stroke="#aaaaaa"/>
<path d="M 954.00 297.20 V 297.20" stroke="#aaaaaa"/>
<path d="M 957.63 307.23 V 297.20" stroke="#aaaaaa"/>
<path d="M 964.89 312.25 V 307.23" stroke="#aaaaaa"/>
<path d="M 968.52 312.25 V 312.25" stroke="#aaaaaa"/>
<path d="M 975.78 307.23 V 302.22" stroke="#aaaaaa"/>
<path d="M 979.41 297.20 V 297.20" stroke="#aaaaaa"/>
<path d="M 986.67 292.19 V 287.18" stroke="#aaaaaa"/>
<path d="M 993.93 287.18 V 287.18" stroke="#aaaaaa"/>
<path d="M 1008.44 292.19 V 287.18" stroke="#aaaaaa"/>
<path d="M 1015.70 292.19 V 292.19" stroke="#aaaaaa"/>
<path d="M 1030.22 302.22 V 292.19" stroke="#aaaaaa"/>
<path d="M 1052.00 282.16 V 282.16" stroke="#aaaaaa"/>
<polyline points="72.00,176.87 75.63,181.88 79.26,191.91" fill="none" stroke="black" stroke-width="1.3"/>
<polyline points="90.15,156.81 93.78,176.87 97.41,181.88" fill="none" stroke="black" stroke-width="1.3"/>
<polyline points="104.67,186.89" fill="none" stroke="black" stroke-width="1.3"/>
<polyline points="119.19,176.87" fill="none" stroke="black" stroke-width="1.3"/>
<polyline points="137.33,176.87" fill="none" stroke="black" stroke-width="1.3"/>
<polyline points="148.22,176.87" fill="none" stroke="black" stroke-width="1.3"/>
<polyline points="173.63,176.87" fill="none" stroke="black" stroke-width="1.3"/>
<polyline points="180.89,191.91" fill="none" stroke="black" stroke-width="1.3"/>
<polyline points="398.67,171.85" fill="none" stroke="black" stroke-width="1.3"/>
<polyline points="405.93,171.85 409.56,136.75" fill="none" stroke="black" stroke-width="1.3"/>
<polyline points="471.26,121.71" fill="none" stroke="black" stroke-width="1.3"/>
<polyline points="511.19,121.71" fill="none" stroke="black" stroke-width="1.3"/>
<polyline points="518.44,101.66" fill="none" stroke="black" stroke-width="1.3"/>
<polyline points="562.00,126.73 565.63,136.75" fill="none" stroke="black" stroke-width="1.3"/>
<polyline points="583.78,126.73" fill="none" stroke="black" stroke-width="1.3"/>
<polyline points="605.56,126.73 609.19,136.75 612.81,171.85 616.44,186.89 620.07,191.91 623.70,206.95 627.33,232.02 630.96,247.06 634.59,322.27 638.22,287.18 641.85,277.15 645.48,277.15" fill="none" stroke="black" stroke-width="1.3"/>
<polyline points="652.74,272.13 656.37,277.15" fill="none" stroke="black" stroke-width="1.3"/>
<polyline points="670.89,287.18" fill="none" stroke="black" stroke-width="1.3"/>
<polyline points="678.15,277.15 681.78,282.16" fill="none" stroke="black" stroke-width="1.3"/>
<polyline points="689.04,287.18" fill="none" stroke="black" stroke-width="1.3"/>
<polyline points="703.56,287.18 707.19,277.15 710.81,292.19" fill="none" stroke="black" stroke-width="1.3"/>
<polyline points="736.22,272.13" fill="none" stroke="black" stroke-width="1.3"/>
<polyline points="747.11,277.15" fill="none" stroke="black" stroke-width="1.3"/>
<polyline points="754.37,342.33 758.00,317.26 761.63,297.20 765.26,287.18 768.89,277.15" fill="none" stroke="black" stroke-width="1.3"/>
<polyline points="779.78,287.18" fill="none" stroke="black" stroke-width="1.3"/>
<polyline points="790.67,297.20 794.30,292.19 797.93,287.18" fill="none" stroke="black" stroke-width="1.3"/>
<polyline points="816.07,282.16 819.70,262.11" fill="none" stroke="black" stroke-width="1.3"/>
<polyline points="826.96,282.16 830.59,257.09 834.22,277.15" fill="none" stroke="black" stroke-width="1.3"/>
<polyline points="845.11,287.18" fill="none" stroke="black" stroke-width="1.3"/>
<polyline points="852.37,282.16" fill="none" stroke="black" stroke-width="1.3"/>
<polyline points="859.63,287.18" fill="none" stroke="black" stroke-width="1.3"/>
<polyline points="881.41,287.18" fill="none" stroke="black" stroke-width="1.3"/>
<polyline points="888.67,277.15" fill="none" stroke="black" stroke-width="1.3"/>
<polyline points="906.81,277.15" fill="none" stroke="black" stroke-width="1.3"/>
<polyline points="924.96,287.18" fill="none" stroke="black" stroke-width="1.3"/>
<polyline points="950.37,307.23 954.00,297.20 957.63,307.23" fill="none" stroke="black" stroke-width="1.3"/>
<polyline points="964.89,312.25 968.52,312.25" fill="none" stroke="black" stroke-width="1.3"/>
<polyline points="975.78,302.22 979.41,297.20" fill="none" stroke="black" stroke-width="1.3"/>
<polyline points="986.67,287.18" fill="none" stroke="black" stroke-width="1.3"/>
<polyline points="993.93,287.18" fill="none" stroke="black" stroke-width="1.3"/>
<polyline points="1008.44,287.18" fill="none" stroke="black" stroke-width="1.3"/>
<polyline points="1015.70,292.19" fill="none" stroke="black" stroke-width="1.3"/>
<polyline points="1030.22,292.19" fill="none" stroke="black" stroke-width="1.3"/>
<polyline points="1052.00,282.16" fill="none" stroke="black" stroke-width="1.3"/>
<path d="M 754.37 82 V 367" stroke="black" stroke-dasharray="2 5"/>
<text x="756.37" y="360">Low</text>
<path d="M 518.44 82 V 367" stroke="black" stroke-dasharray="2 5"/>
<text x="520.44" y="360">High</text>
<text x="56.00" y="387">11:00</text>
<text x="164.89" y="387">11:30</text>
<text x="273.78" y="387">12:00</text>
<text x="382.67" y="387">12:30</text>
<text x="491.56" y="387">13:00</text>
<text x="600.44" y="387">13:30</text>
<text x="709.33" y="387">14:00</text>
<text x="818.22" y="387">14:30</text>
<text x="927.11" y="387">15:00</text>
<text x="1036.00" y="387">15:30</text>
<text x="20" y="411">11:01 FIRST_MINUS0_5_LOW; 11:01 RECOVERY_PAIR_LOW; 11:05 FIRST_PLUS1_HIGH; 11:05 RECOVERY_PAIR_HIGH; 13:35 RECOVERY_FULL_LOW; 13:36 RECOVERY_FULL_HIGH</text>
</g></svg>
