<svg xmlns="http://www.w3.org/2000/svg" width="1100" height="430" viewBox="0 0 1100 430">
<rect width="100%" height="100%" fill="white"/>
<g font-family="sans-serif" font-size="12" fill="black">
<text x="20" y="22">2025-08-19|23230 | DIRECT_CONTINUATION</text>
<text x="20" y="42">Future anatomy only; no trades. Predicate: DIRECT_CONTINUATION</text>
<text x="20" y="60">Gate: NONE; observed=58; regular missing=118</text>
<rect x="72.00" y="82" width="245.00" height="285" fill="#eeeeee"/>
<text x="75.00" y="98">Lunch</text>
<path d="M 72 367.00 H 1052" stroke="#dddddd"/>
<text x="5" y="371.00">-1.26%</text>
<path d="M 72 310.00 H 1052" stroke="#dddddd"/>
<text x="5" y="314.00">2.39%</text>
<path d="M 72 253.00 H 1052" stroke="#dddddd"/>
<text x="5" y="257.00">6.04%</text>
<path d="M 72 196.00 H 1052" stroke="#dddddd"/>
<text x="5" y="200.00">9.69%</text>
<path d="M 72 139.00 H 1052" stroke="#dddddd"/>
<text x="5" y="143.00">13.33%</text>
<path d="M 72 82.00 H 1052" stroke="#dddddd"/>
<text x="5" y="86.00">16.98%</text>
<path d="M 72 347.34 H 1052" stroke="black" stroke-dasharray="5 4"/>
<path d="M 317.00 344.58 V 344.58" stroke="#aaaaaa"/>
<path d="M 325.17 336.30 V 333.54" stroke="#aaaaaa"/>
<path d="M 329.25 333.54 V 322.50" stroke="#aaaaaa"/>
<path d="M 333.33 319.74 V 316.98" stroke="#aaaaaa"/>
<path d="M 341.50 305.94 V 303.18" stroke="#aaaaaa"/>
<path d="M 345.58 308.70 V 300.42" stroke="#aaaaaa"/>
<path d="M 349.67 303.18 V 300.42" stroke="#aaaaaa"/>
<path d="M 353.75 316.98 V 303.18" stroke="#aaaaaa"/>
<path d="M 361.92 311.46 V 308.70" stroke="#aaaaaa"/>
<path d="M 370.08 319.74 V 308.70" stroke="#aaaaaa"/>
<path d="M 374.17 319.74 V 311.46" stroke="#aaaaaa"/>
<path d="M 402.75 311.46 V 308.70" stroke="#aaaaaa"/>
<path d="M 415.00 303.18 V 297.65" stroke="#aaaaaa"/>
<path d="M 419.08 297.65 V 297.65" stroke="#aaaaaa"/>
<path d="M 423.17 300.42 V 300.42" stroke="#aaaaaa"/>
<path d="M 427.25 305.94 V 305.94" stroke="#aaaaaa"/>
<path d="M 435.42 305.94 V 294.89" stroke="#aaaaaa"/>
<path d="M 443.58 297.65 V 297.65" stroke="#aaaaaa"/>
<path d="M 447.67 292.13 V 289.37" stroke="#aaaaaa"/>
<path d="M 451.75 283.85 V 283.85" stroke="#aaaaaa"/>
<path d="M 455.83 281.09 V 281.09" stroke="#aaaaaa"/>
<path d="M 468.08 275.57 V 275.57" stroke="#aaaaaa"/>
<path d="M 472.17 275.57 V 267.29" stroke="#aaaaaa"/>
<path d="M 476.25 267.29 V 261.77" stroke="#aaaaaa"/>
<path d="M 480.33 261.77 V 234.16" stroke="#aaaaaa"/>
<path d="M 484.42 253.49 V 247.96" stroke="#aaaaaa"/>
<path d="M 488.50 250.73 V 247.96" stroke="#aaaaaa"/>
<path d="M 492.58 253.49 V 247.96" stroke="#aaaaaa"/>
<path d="M 496.67 256.25 V 256.25" stroke="#aaaaaa"/>
<path d="M 500.75 261.77 V 259.01" stroke="#aaaaaa"/>
<path d="M 504.83 261.77 V 261.77" stroke="#aaaaaa"/>
<path d="M 508.92 270.05 V 267.29" stroke="#aaaaaa"/>
<path d="M 513.00 272.81 V 264.53" stroke="#aaaaaa"/>
<path d="M 517.08 281.09 V 272.81" stroke="#aaaaaa"/>
<path d="M 521.17 281.09 V 281.09" stroke="#aaaaaa"/>
<path d="M 525.25 283.85 V 272.81" stroke="#aaaaaa"/>
<path d="M 541.58 275.57 V 275.57" stroke="#aaaaaa"/>
<path d="M 545.67 275.57 V 275.57" stroke="#aaaaaa"/>
<path d="M 553.83 275.57 V 275.57" stroke="#aaaaaa"/>
<path d="M 557.92 272.81 V 272.81" stroke="#aaaaaa"/>
<path d="M 562.00 270.05 V 270.05" stroke="#aaaaaa"/>
<path d="M 570.17 270.05 V 270.05" stroke="#aaaaaa"/>
<path d="M 574.25 272.81 V 261.77" stroke="#aaaaaa"/>
<path d="M 578.33 259.01 V 259.01" stroke="#aaaaaa"/>
<path d="M 594.67 253.49 V 253.49" stroke="#aaaaaa"/>
<path d="M 598.75 264.53 V 259.01" stroke="#aaaaaa"/>
<path d="M 611.00 264.53 V 264.53" stroke="#aaaaaa"/>
<path d="M 619.17 264.53 V 261.77" stroke="#aaaaaa"/>
<path d="M 623.25 270.05 V 267.29" stroke="#aaaaaa"/>
<path d="M 672.25 275.57 V 275.57" stroke="#aaaaaa"/>
<path d="M 684.50 275.57 V 220.36" stroke="#aaaaaa"/>
<path d="M 696.75 192.75 V 137.54" stroke="#aaaaaa"/>
<path d="M 700.83 151.35 V 101.66" stroke="#aaaaaa"/>
<path d="M 704.92 123.74 V 101.66" stroke="#aaaaaa"/>
<path d="M 709.00 118.22 V 109.94" stroke="#aaaaaa"/>
<path d="M 713.08 118.22 V 107.18" stroke="#aaaaaa"/>
<path d="M 717.17 123.74 V 101.66" stroke="#aaaaaa"/>
<path d="M 1052.00 101.66 V 101.66" stroke="#aaaaaa"/>
<polyline points="317.00,344.58" fill="none" stroke="black" stroke-width="1.3"/>
<polyline points="325.17,333.54 329.25,322.50 333.33,316.98" fill="none" stroke="black" stroke-width="1.3"/>
<polyline points="341.50,303.18 345.58,308.70 349.67,303.18 353.75,308.70" fill="none" stroke="black" stroke-width="1.3"/>
<polyline points="361.92,308.70" fill="none" stroke="black" stroke-width="1.3"/>
<polyline points="370.08,314.22 374.17,311.46" fill="none" stroke="black" stroke-width="1.3"/>
<polyline points="402.75,308.70" fill="none" stroke="black" stroke-width="1.3"/>
<polyline points="415.00,297.65 419.08,297.65 423.17,300.42 427.25,305.94" fill="none" stroke="black" stroke-width="1.3"/>
<polyline points="435.42,300.42" fill="none" stroke="black" stroke-width="1.3"/>
<polyline points="443.58,297.65 447.67,292.13 451.75,283.85 455.83,281.09" fill="none" stroke="black" stroke-width="1.3"/>
<polyline points="468.08,275.57 472.17,267.29 476.25,261.77 480.33,236.92 484.42,247.96 488.50,250.73 492.58,253.49 496.67,256.25 500.75,261.77 504.83,261.77 508.92,270.05 513.00,272.81 517.08,281.09 521.17,281.09 525.25,283.85" fill="none" stroke="black" stroke-width="1.3"/>
<polyline points="541.58,275.57 545.67,275.57" fill="none" stroke="black" stroke-width="1.3"/>
<polyline points="553.83,275.57 557.92,272.81 562.00,270.05" fill="none" stroke="black" stroke-width="1.3"/>
<polyline points="570.17,270.05 574.25,261.77 578.33,259.01" fill="none" stroke="black" stroke-width="1.3"/>
<polyline points="594.67,253.49 598.75,264.53" fill="none" stroke="black" stroke-width="1.3"/>
<polyline points="611.00,264.53" fill="none" stroke="black" stroke-width="1.3"/>
<polyline points="619.17,264.53 623.25,270.05" fill="none" stroke="black" stroke-width="1.3"/>
<polyline points="672.25,275.57" fill="none" stroke="black" stroke-width="1.3"/>
<polyline points="684.50,220.36" fill="none" stroke="black" stroke-width="1.3"/>
<polyline points="696.75,137.54 700.83,120.98 704.92,118.22 709.00,118.22 713.08,118.22 717.17,101.66" fill="none" stroke="black" stroke-width="1.3"/>
<polyline points="1052.00,101.66" fill="none" stroke="black" stroke-width="1.3"/>
<path d="M 317.00 82 V 367" stroke="black" stroke-dasharray="2 5"/>
<text x="319.00" y="360">Low</text>
<path d="M 700.83 82 V 367" stroke="black" stroke-dasharray="2 5"/>
<text x="702.83" y="360">High</text>
<text x="56.00" y="387">11:30</text>
<text x="178.50" y="387">12:00</text>
<text x="301.00" y="387">12:30</text>
<text x="423.50" y="387">13:00</text>
<text x="546.00" y="387">13:30</text>
<text x="668.50" y="387">14:00</text>
<text x="791.00" y="387">14:30</text>
<text x="913.50" y="387">15:00</text>
<text x="1036.00" y="387">15:30</text>
<text x="20" y="411">12:33 FIRST_PLUS1_HIGH</text>
</g></svg>
