<svg xmlns="http://www.w3.org/2000/svg" width="1100" height="430" viewBox="0 0 1100 430">
<rect width="100%" height="100%" fill="white"/>
<g font-family="sans-serif" font-size="12" fill="black">
<text x="20" y="22">2025-08-06|130A0 | DIRECT_CONTINUATION</text>
<text x="20" y="42">Future anatomy only; no trades. Predicate: DIRECT_CONTINUATION</text>
<text x="20" y="60">Gate: NONE; observed=51; regular missing=5</text>
<path d="M 72 367.00 H 1052" stroke="#dddddd"/>
<text x="5" y="371.00">-0.70%</text>
<path d="M 72 310.00 H 1052" stroke="#dddddd"/>
<text x="5" y="314.00">-0.06%</text>
<path d="M 72 253.00 H 1052" stroke="#dddddd"/>
<text x="5" y="257.00">0.58%</text>
<path d="M 72 196.00 H 1052" stroke="#dddddd"/>
<text x="5" y="200.00">1.23%</text>
<path d="M 72 139.00 H 1052" stroke="#dddddd"/>
<text x="5" y="143.00">1.87%</text>
<path d="M 72 82.00 H 1052" stroke="#dddddd"/>
<text x="5" y="86.00">2.51%</text>
<path d="M 72 304.62 H 1052" stroke="black" stroke-dasharray="5 4"/>
<path d="M 72.00 315.30 V 293.93" stroke="#aaaaaa"/>
<path d="M 88.33 283.25 V 219.16" stroke="#aaaaaa"/>
<path d="M 104.67 240.52 V 219.16" stroke="#aaaaaa"/>
<path d="M 121.00 251.21 V 251.21" stroke="#aaaaaa"/>
<path d="M 137.33 293.93 V 261.89" stroke="#aaaaaa"/>
<path d="M 153.67 261.89 V 251.21" stroke="#aaaaaa"/>
<path d="M 170.00 251.21 V 240.52" stroke="#aaaaaa"/>
<path d="M 202.67 272.57 V 272.57" stroke="#aaaaaa"/>
<path d="M 219.00 283.25 V 283.25" stroke="#aaaaaa"/>
<path d="M 235.33 315.30 V 283.25" stroke="#aaaaaa"/>
<path d="M 251.67 315.30 V 272.57" stroke="#aaaaaa"/>
<path d="M 268.00 272.57 V 261.89" stroke="#aaaaaa"/>
<path d="M 284.33 293.93 V 261.89" stroke="#aaaaaa"/>
<path d="M 300.67 336.66 V 304.62" stroke="#aaaaaa"/>
<path d="M 317.00 304.62 V 293.93" stroke="#aaaaaa"/>
<path d="M 333.33 325.98 V 304.62" stroke="#aaaaaa"/>
<path d="M 349.67 293.93 V 283.25" stroke="#aaaaaa"/>
<path d="M 382.33 304.62 V 304.62" stroke="#aaaaaa"/>
<path d="M 398.67 293.93 V 293.93" stroke="#aaaaaa"/>
<path d="M 431.33 304.62 V 293.93" stroke="#aaaaaa"/>
<path d="M 447.67 315.30 V 304.62" stroke="#aaaaaa"/>
<path d="M 464.00 293.93 V 293.93" stroke="#aaaaaa"/>
<path d="M 480.33 283.25 V 283.25" stroke="#aaaaaa"/>
<path d="M 496.67 293.93 V 283.25" stroke="#aaaaaa"/>
<path d="M 513.00 315.30 V 293.93" stroke="#aaaaaa"/>
<path d="M 529.33 315.30 V 315.30" stroke="#aaaaaa"/>
<path d="M 545.67 336.66 V 325.98" stroke="#aaaaaa"/>
<path d="M 562.00 347.34 V 325.98" stroke="#aaaaaa"/>
<path d="M 578.33 325.98 V 315.30" stroke="#aaaaaa"/>
<path d="M 594.67 336.66 V 325.98" stroke="#aaaaaa"/>
<path d="M 611.00 315.30 V 315.30" stroke="#aaaaaa"/>
<path d="M 627.33 315.30 V 315.30" stroke="#aaaaaa"/>
<path d="M 643.67 336.66 V 315.30" stroke="#aaaaaa"/>
<path d="M 660.00 325.98 V 304.62" stroke="#aaaaaa"/>
<path d="M 676.33 315.30 V 304.62" stroke="#aaaaaa"/>
<path d="M 725.33 325.98 V 325.98" stroke="#aaaaaa"/>
<path d="M 741.67 315.30 V 240.52" stroke="#aaaaaa"/>
<path d="M 758.00 261.89 V 240.52" stroke="#aaaaaa"/>
<path d="M 774.33 251.21 V 240.52" stroke="#aaaaaa"/>
<path d="M 790.67 240.52 V 219.16" stroke="#aaaaaa"/>
<path d="M 807.00 251.21 V 229.84" stroke="#aaaaaa"/>
<path d="M 823.33 240.52 V 229.84" stroke="#aaaaaa"/>
<path d="M 839.67 229.84 V 219.16" stroke="#aaaaaa"/>
<path d="M 856.00 229.84 V 219.16" stroke="#aaaaaa"/>
<path d="M 872.33 219.16 V 208.48" stroke="#aaaaaa"/>
<path d="M 888.67 197.79 V 176.43" stroke="#aaaaaa"/>
<path d="M 905.00 176.43 V 144.38" stroke="#aaaaaa"/>
<path d="M 921.33 165.75 V 155.07" stroke="#aaaaaa"/>
<path d="M 937.67 197.79 V 165.75" stroke="#aaaaaa"/>
<path d="M 954.00 187.11 V 144.38" stroke="#aaaaaa"/>
<path d="M 1052.00 101.66 V 101.66" stroke="#aaaaaa"/>
<polyline points="72.00,293.93 88.33,219.16 104.67,240.52 121.00,251.21 137.33,293.93 153.67,251.21 170.00,251.21" fill="none" stroke="black" stroke-width="1.3"/>
<polyline points="202.67,272.57 219.00,283.25 235.33,293.93 251.67,272.57 268.00,261.89 284.33,293.93 300.67,325.98 317.00,304.62 333.33,325.98 349.67,293.93" fill="none" stroke="black" stroke-width="1.3"/>
<polyline points="382.33,304.62 398.67,293.93" fill="none" stroke="black" stroke-width="1.3"/>
<polyline points="431.33,304.62 447.67,304.62 464.00,293.93 480.33,283.25 496.67,283.25 513.00,315.30 529.33,315.30 545.67,336.66 562.00,325.98 578.33,315.30 594.67,336.66 611.00,315.30 627.33,315.30 643.67,315.30 660.00,325.98 676.33,315.30" fill="none" stroke="black" stroke-width="1.3"/>
<polyline points="725.33,325.98 741.67,251.21 758.00,251.21 774.33,251.21 790.67,229.84 807.00,251.21 823.33,229.84 839.67,219.16 856.00,229.84 872.33,208.48 888.67,187.11 905.00,144.38 921.33,165.75 937.67,165.75 954.00,144.38" fill="none" stroke="black" stroke-width="1.3"/>
<polyline points="1052.00,101.66" fill="none" stroke="black" stroke-width="1.3"/>
<path d="M 562.00 82 V 367" stroke="black" stroke-dasharray="2 5"/>
<text x="564.00" y="360">Low</text>
<path d="M 1052.00 82 V 367" stroke="black" stroke-dasharray="2 5"/>
<text x="1054.00" y="360">High</text>
<text x="56.00" y="387">14:30</text>
<text x="546.00" y="387">15:00</text>
<text x="1036.00" y="387">15:30</text>
<text x="20" y="411">15:19 FIRST_PLUS1_HIGH</text>
</g></svg>
