<svg xmlns="http://www.w3.org/2000/svg" width="1100" height="430" viewBox="0 0 1100 430">
<rect width="100%" height="100%" fill="white"/>
<g font-family="sans-serif" font-size="12" fill="black">
<text x="20" y="22">2025-08-06|91270 | DIRECT_CONTINUATION</text>
<text x="20" y="42">Future anatomy only; no trades. Predicate: DIRECT_CONTINUATION</text>
<text x="20" y="60">Gate: NONE; observed=51; regular missing=215</text>
<rect x="339.27" y="82" width="178.18" height="285" fill="#eeeeee"/>
<text x="342.27" y="98">Lunch</text>
<path d="M 72 367.00 H 1052" stroke="#dddddd"/>
<text x="5" y="371.00">-0.59%</text>
<path d="M 72 310.00 H 1052" stroke="#dddddd"/>
<text x="5" y="314.00">1.12%</text>
<path d="M 72 253.00 H 1052" stroke="#dddddd"/>
<text x="5" y="257.00">2.83%</text>
<path d="M 72 196.00 H 1052" stroke="#dddddd"/>
<text x="5" y="200.00">4.53%</text>
<path d="M 72 139.00 H 1052" stroke="#dddddd"/>
<text x="5" y="143.00">6.24%</text>
<path d="M 72 82.00 H 1052" stroke="#dddddd"/>
<text x="5" y="86.00">7.95%</text>
<path d="M 72 347.34 H 1052" stroke="black" stroke-dasharray="5 4"/>
<path d="M 80.91 344.96 V 344.96" stroke="#aaaaaa"/>
<path d="M 107.64 346.15 V 344.96" stroke="#aaaaaa"/>
<path d="M 113.58 324.68 V 324.68" stroke="#aaaaaa"/>
<path d="M 146.24 316.34 V 313.95" stroke="#aaaaaa"/>
<path d="M 175.94 303.22 V 303.22" stroke="#aaaaaa"/>
<path d="M 178.91 297.25 V 297.25" stroke="#aaaaaa"/>
<path d="M 190.79 291.29 V 291.29" stroke="#aaaaaa"/>
<path d="M 193.76 294.87 V 294.87" stroke="#aaaaaa"/>
<path d="M 202.67 294.87 V 294.87" stroke="#aaaaaa"/>
<path d="M 208.61 286.52 V 286.52" stroke="#aaaaaa"/>
<path d="M 217.52 286.52 V 260.28" stroke="#aaaaaa"/>
<path d="M 241.27 241.20 V 226.89" stroke="#aaaaaa"/>
<path d="M 259.09 204.22 V 204.22" stroke="#aaaaaa"/>
<path d="M 318.48 226.89 V 226.89" stroke="#aaaaaa"/>
<path d="M 327.39 211.38 V 183.95" stroke="#aaaaaa"/>
<path d="M 336.30 185.14 V 185.14" stroke="#aaaaaa"/>
<path d="M 517.45 244.78 V 186.33" stroke="#aaaaaa"/>
<path d="M 535.27 266.24 V 244.78" stroke="#aaaaaa"/>
<path d="M 547.15 253.12 V 253.12" stroke="#aaaaaa"/>
<path d="M 550.12 203.03 V 203.03" stroke="#aaaaaa"/>
<path d="M 553.09 209.00 V 185.14" stroke="#aaaaaa"/>
<path d="M 573.88 194.68 V 183.95" stroke="#aaaaaa"/>
<path d="M 588.73 203.03 V 203.03" stroke="#aaaaaa"/>
<path d="M 636.24 197.07 V 170.83" stroke="#aaaaaa"/>
<path d="M 662.97 187.53 V 187.53" stroke="#aaaaaa"/>
<path d="M 683.76 197.07 V 195.88" stroke="#aaaaaa"/>
<path d="M 695.64 198.26 V 198.26" stroke="#aaaaaa"/>
<path d="M 713.45 197.07 V 197.07" stroke="#aaaaaa"/>
<path d="M 734.24 185.14 V 185.14" stroke="#aaaaaa"/>
<path d="M 737.21 185.14 V 185.14" stroke="#aaaaaa"/>
<path d="M 772.85 170.83 V 170.83" stroke="#aaaaaa"/>
<path d="M 781.76 169.64 V 145.78" stroke="#aaaaaa"/>
<path d="M 784.73 144.59 V 137.44" stroke="#aaaaaa"/>
<path d="M 799.58 160.10 V 158.90" stroke="#aaaaaa"/>
<path d="M 832.24 149.36 V 149.36" stroke="#aaaaaa"/>
<path d="M 850.06 149.36 V 149.36" stroke="#aaaaaa"/>
<path d="M 861.94 148.17 V 148.17" stroke="#aaaaaa"/>
<path d="M 879.76 148.17 V 148.17" stroke="#aaaaaa"/>
<path d="M 903.52 149.36 V 125.51" stroke="#aaaaaa"/>
<path d="M 915.39 121.93 V 121.93" stroke="#aaaaaa"/>
<path d="M 927.27 144.59 V 144.59" stroke="#aaaaaa"/>
<path d="M 930.24 143.40 V 143.40" stroke="#aaaaaa"/>
<path d="M 936.18 142.21 V 142.21" stroke="#aaaaaa"/>
<path d="M 942.12 143.40 V 143.40" stroke="#aaaaaa"/>
<path d="M 977.76 121.93 V 110.00" stroke="#aaaaaa"/>
<path d="M 983.70 121.93 V 121.93" stroke="#aaaaaa"/>
<path d="M 995.58 121.93 V 121.93" stroke="#aaaaaa"/>
<path d="M 1013.39 133.86 V 133.86" stroke="#aaaaaa"/>
<path d="M 1031.21 121.93 V 101.66" stroke="#aaaaaa"/>
<path d="M 1034.18 110.00 V 101.66" stroke="#aaaaaa"/>
<path d="M 1052.00 142.21 V 142.21" stroke="#aaaaaa"/>
<polyline points="80.91,344.96" fill="none" stroke="black" stroke-width="1.3"/>
<polyline points="107.64,344.96" fill="none" stroke="black" stroke-width="1.3"/>
<polyline points="113.58,324.68" fill="none" stroke="black" stroke-width="1.3"/>
<polyline points="146.24,316.34" fill="none" stroke="black" stroke-width="1.3"/>
<polyline points="175.94,303.22 178.91,297.25" fill="none" stroke="black" stroke-width="1.3"/>
<polyline points="190.79,291.29 193.76,294.87" fill="none" stroke="black" stroke-width="1.3"/>
<polyline points="202.67,294.87" fill="none" stroke="black" stroke-width="1.3"/>
<polyline points="208.61,286.52" fill="none" stroke="black" stroke-width="1.3"/>
<polyline points="217.52,260.28" fill="none" stroke="black" stroke-width="1.3"/>
<polyline points="241.27,226.89" fill="none" stroke="black" stroke-width="1.3"/>
<polyline points="259.09,204.22" fill="none" stroke="black" stroke-width="1.3"/>
<polyline points="318.48,226.89" fill="none" stroke="black" stroke-width="1.3"/>
<polyline points="327.39,183.95" fill="none" stroke="black" stroke-width="1.3"/>
<polyline points="336.30,185.14" fill="none" stroke="black" stroke-width="1.3"/>
<polyline points="517.45,192.30" fill="none" stroke="black" stroke-width="1.3"/>
<polyline points="535.27,266.24" fill="none" stroke="black" stroke-width="1.3"/>
<polyline points="547.15,253.12 550.12,203.03 553.09,209.00" fill="none" stroke="black" stroke-width="1.3"/>
<polyline points="573.88,194.68" fill="none" stroke="black" stroke-width="1.3"/>
<polyline points="588.73,203.03" fill="none" stroke="black" stroke-width="1.3"/>
<polyline points="636.24,170.83" fill="none" stroke="black" stroke-width="1.3"/>
<polyline points="662.97,187.53" fill="none" stroke="black" stroke-width="1.3"/>
<polyline points="683.76,197.07" fill="none" stroke="black" stroke-width="1.3"/>
<polyline points="695.64,198.26" fill="none" stroke="black" stroke-width="1.3"/>
<polyline points="713.45,197.07" fill="none" stroke="black" stroke-width="1.3"/>
<polyline points="734.24,185.14 737.21,185.14" fill="none" stroke="black" stroke-width="1.3"/>
<polyline points="772.85,170.83" fill="none" stroke="black" stroke-width="1.3"/>
<polyline points="781.76,145.78 784.73,137.44" fill="none" stroke="black" stroke-width="1.3"/>
<polyline points="799.58,158.90" fill="none" stroke="black" stroke-width="1.3"/>
<polyline points="832.24,149.36" fill="none" stroke="black" stroke-width="1.3"/>
<polyline points="850.06,149.36" fill="none" stroke="black" stroke-width="1.3"/>
<polyline points="861.94,148.17" fill="none" stroke="black" stroke-width="1.3"/>
<polyline points="879.76,148.17" fill="none" stroke="black" stroke-width="1.3"/>
<polyline points="903.52,125.51" fill="none" stroke="black" stroke-width="1.3"/>
<polyline points="915.39,121.93" fill="none" stroke="black" stroke-width="1.3"/>
<polyline points="927.27,144.59 930.24,143.40" fill="none" stroke="black" stroke-width="1.3"/>
<polyline points="936.18,142.21" fill="none" stroke="black" stroke-width="1.3"/>
<polyline points="942.12,143.40" fill="none" stroke="black" stroke-width="1.3"/>
<polyline points="977.76,110.00" fill="none" stroke="black" stroke-width="1.3"/>
<polyline points="983.70,121.93" fill="none" stroke="black" stroke-width="1.3"/>
<polyline points="995.58,121.93" fill="none" stroke="black" stroke-width="1.3"/>
<polyline points="1013.39,133.86" fill="none" stroke="black" stroke-width="1.3"/>
<polyline points="1031.21,101.66 1034.18,110.00" fill="none" stroke="black" stroke-width="1.3"/>
<polyline points="1052.00,142.21" fill="none" stroke="black" stroke-width="1.3"/>
<path d="M 107.64 82 V 367" stroke="black" stroke-dasharray="2 5"/>
<text x="109.64" y="360">Low</text>
<path d="M 1031.21 82 V 367" stroke="black" stroke-dasharray="2 5"/>
<text x="1033.21" y="360">High</text>
<text x="56.00" y="387">10:00</text>
<text x="145.09" y="387">10:30</text>
<text x="234.18" y="387">11:00</text>
<text x="323.27" y="387">11:30</text>
<text x="412.36" y="387">12:00</text>
<text x="501.45" y="387">12:30</text>
<text x="590.55" y="387">13:00</text>
<text x="679.64" y="387">13:30</text>
<text x="768.73" y="387">14:00</text>
<text x="857.82" y="387">14:30</text>
<text x="946.91" y="387">15:00</text>
<text x="1036.00" y="387">15:30</text>
<text x="20" y="411">10:25 FIRST_PLUS1_HIGH</text>
</g></svg>
