<svg xmlns="http://www.w3.org/2000/svg" width="900" height="450" viewBox="0 0 900 450">
<rect width="900" height="450" fill="#fbfbf8"/>
<text x="36" y="38" font-family="sans-serif" font-size="22" font-weight="bold" fill="#16253b">+3% Targetの観測・参照ファネル</text>
<text x="36" y="63" font-family="sans-serif" font-size="12" fill="#516072">24 session / 旧funded、研究用closed→次OPEN参照、実注文fillの証明ではない</text>
<rect x="100" y="140" width="72.4" height="34" fill="#2563a9"/><text x="100" y="132" font-size="12">High確認: 44</text><rect x="255" y="140" width="70.8" height="34" fill="#2563a9"/><text x="255" y="132" font-size="12">closed判断: 43</text><rect x="410" y="140" width="70.8" height="34" fill="#2563a9"/><text x="410" y="132" font-size="12">intent: 43</text><rect x="565" y="140" width="64.2" height="34" fill="#2563a9"/><text x="565" y="132" font-size="12">参照解決: 39</text><rect x="720" y="140" width="123.4" height="34" fill="#2563a9"/><text x="720" y="132" font-size="12">paired既知: 75</text><text x="35" y="155" font-size="16">IM</text><rect x="100" y="265" width="29.6" height="34" fill="#cc694b"/><text x="100" y="257" font-size="12">High確認: 18</text><rect x="255" y="265" width="26.3" height="34" fill="#cc694b"/><text x="255" y="257" font-size="12">closed判断: 16</text><rect x="410" y="265" width="26.3" height="34" fill="#cc694b"/><text x="410" y="257" font-size="12">intent: 16</text><rect x="565" y="265" width="24.7" height="34" fill="#cc694b"/><text x="565" y="257" font-size="12">参照解決: 15</text><rect x="720" y="265" width="49.4" height="34" fill="#cc694b"/><text x="720" y="257" font-size="12">paired既知: 30</text><text x="35" y="280" font-size="16">R1</text>
<text x="36" y="431" font-family="sans-serif" font-size="11" fill="#516072">棒幅は共通79件スケール。paired既知はR50委譲を含む。</text>
</svg>